<svg width="8" height="8" viewBox="0 0 8 8" fill="none" xmlns="http://www.w3.org/2000/svg">
<path fill-rule="evenodd" clip-rule="evenodd" d="M7.94803 1.31854C8.02887 1.43979 8.0154 1.60457 7.90761 1.71131L4.0413 5.53996C4.00167 5.57921 3.95219 5.60729 3.89797 5.62132L2.28773 6.03782C2.23522 6.0514 2.18108 6.05113 2.13022 6.03831C2.07614 6.02468 2.02577 5.99687 1.98496 5.95646C1.90577 5.87805 1.87451 5.76393 1.90281 5.65663L2.32341 4.06208C2.3358 4.0151 2.35906 3.96869 2.39123 3.93229L6.27186 0.0914931C6.30583 0.0578548 6.34676 0.0326789 6.39128 0.0173395C6.4243 0.00596611 6.4593 0 6.49492 0C6.57858 0 6.65882 0.032911 6.71797 0.0914931L7.90761 1.26954C7.92301 1.28479 7.93648 1.30122 7.94803 1.31854ZM7.23844 1.49042L6.49492 0.754145L2.91219 4.30198L2.64932 5.29857L3.65572 5.03826L7.23844 1.49042Z" fill="white"/>
<path d="M7.18527 6.21019C7.30026 5.23656 7.33685 4.25615 7.29504 3.27821C7.29304 3.23138 7.31082 3.18582 7.34428 3.15268L7.75787 2.74312C7.80872 2.69277 7.89561 2.72474 7.90036 2.79579C7.97814 3.95769 7.94865 5.12487 7.8119 6.28276C7.7124 7.12515 7.02921 7.78531 6.18294 7.87897C4.7249 8.04034 3.21776 8.04034 1.75972 7.87897C0.913452 7.78531 0.23026 7.12515 0.130766 6.28276C-0.0435885 4.80655 -0.0435885 3.31525 0.130766 1.83904C0.230259 0.996649 0.913452 0.336488 1.75972 0.242826C2.86579 0.12041 4.00012 0.0908595 5.11983 0.154173C5.192 0.158254 5.2249 0.244727 5.17379 0.295339L4.75632 0.708741C4.72322 0.741518 4.67783 0.75912 4.63105 0.757558C3.69462 0.726282 2.75182 0.761668 1.8298 0.863714C1.27036 0.925631 0.822213 1.3628 0.757392 1.91161C0.588733 3.3396 0.588733 4.7822 0.757392 6.21019C0.822213 6.759 1.27035 7.19617 1.8298 7.25808C3.24126 7.4143 4.7014 7.4143 6.11287 7.25808C6.67231 7.19617 7.12045 6.759 7.18527 6.21019Z" fill="white"/>
</svg>
