<svg width="8" height="8" viewBox="0 0 8 8" fill="none" xmlns="http://www.w3.org/2000/svg">
<path d="M6.38304 4.70173L6.00742 4.32507L6.97311 3.36304C7.27201 3.06412 7.45688 2.65119 7.45688 2.19511C7.45688 1.28282 6.71726 0.54328 5.80488 0.54328C5.34864 0.54328 4.93561 0.728186 4.63664 1.02717L3.67451 1.9924L3.29781 1.61681L4.25994 0.651212C4.65631 0.2491 5.20698 0 5.81585 0C7.02212 0 8 0.977777 8 2.18393C8 2.79273 7.75086 3.34335 7.34898 3.73942L7.34871 3.73968L6.38304 4.70173ZM2.18337 7.99999C0.977447 7.99952 0 7.02192 0 5.81604C0 5.21335 0.244178 4.66766 0.638996 4.27251H0.638981L1.60502 3.31014L1.98064 3.68609L1.01496 4.64812C0.716173 4.94696 0.531381 5.35976 0.531381 5.8157C0.531381 6.72778 1.27085 7.46716 2.18301 7.46716C2.63918 7.46716 3.05215 7.28225 3.35106 6.98328L4.31356 6.01875L4.69096 6.3947L3.72882 7.36029C3.33566 7.75546 2.79144 8 2.19008 8C2.18772 8 2.18536 8 2.183 7.99998L2.18337 7.99999ZM2.4887 5.88706L2.11238 5.51077L5.49938 2.12411L5.87571 2.50039L2.4887 5.88706Z" fill="#F1F0F5"/>
</svg>
