<svg width="19" height="13" viewBox="0 0 19 13" fill="none" xmlns="http://www.w3.org/2000/svg">
<path fill-rule="evenodd" clip-rule="evenodd" d="M13.4583 4.9618V2.54175C13.4583 1.23007 12.395 0.166748 11.0833 0.166748H2.375C1.06332 0.166748 0 1.23007 0 2.54175V10.4584C0 11.7701 1.06332 12.8334 2.375 12.8334H11.0833C12.395 12.8334 13.4583 11.7701 13.4583 10.4584V8.03852L17.7482 11.1027C17.9895 11.2751 18.3069 11.2981 18.5706 11.1624C18.8343 11.0267 19 10.755 19 10.4585V2.54183C19 2.24528 18.8343 1.9736 18.5706 1.8379C18.3069 1.70221 17.9895 1.72526 17.7482 1.89762L13.4583 4.9618ZM1.58333 2.54175C1.58333 2.10452 1.93777 1.75008 2.375 1.75008H11.0833C11.5206 1.75008 11.875 2.10452 11.875 2.54175V10.4584C11.875 10.8956 11.5206 11.2501 11.0833 11.2501H2.375C1.93777 11.2501 1.58333 10.8956 1.58333 10.4584V2.54175ZM17.4167 8.92014L14.0287 6.50016L17.4167 4.08019V8.92014Z" fill="#EFF0FA"/>
</svg>
