<svg width="18" height="18" viewBox="0 0 18 18" fill="none" xmlns="http://www.w3.org/2000/svg">
<path d="M14.7833 15.8C15.0087 15.8 15.2249 15.7104 15.3843 15.551C15.5437 15.3916 15.6333 15.1754 15.6333 14.95L15.6333 3.05C15.6333 2.82457 15.5437 2.60837 15.3843 2.44896C15.2249 2.28955 15.0087 2.2 14.7833 2.2L11.3833 2.2C10.9138 2.2 10.5333 1.81944 10.5333 1.35C10.5333 0.880558 10.9138 0.5 11.3833 0.5L14.7833 0.5C15.4596 0.5 16.1082 0.76866 16.5864 1.24688C17.0646 1.7251 17.3333 2.3737 17.3333 3.05V14.95C17.3333 15.6263 17.0646 16.2749 16.5864 16.7531C16.1082 17.2313 15.4596 17.5 14.7833 17.5H11.3833C10.9138 17.5 10.5333 17.1194 10.5333 16.65C10.5333 16.1806 10.9138 15.8 11.3833 15.8H14.7833Z" fill="#FFEDEC"/>
<path d="M6.0343 13.851C5.70236 14.183 5.16417 14.183 4.83222 13.851L0.584875 9.60369C0.57587 9.59476 0.567066 9.58564 0.558466 9.57632C0.491758 9.5041 0.439871 9.42313 0.402801 9.33729C0.358053 9.23388 0.333252 9.11983 0.333252 8.99999C0.333252 8.87996 0.358131 8.76574 0.403013 8.66221C0.439724 8.57734 0.490929 8.49724 0.556622 8.42567C0.565847 8.41561 0.575312 8.40578 0.585007 8.39617L4.83222 4.14895C5.16417 3.81701 5.70236 3.81701 6.0343 4.14895C6.36625 4.4809 6.36625 5.01909 6.0343 5.35104L3.23534 8.14999L11.3833 8.14999C11.8527 8.14999 12.2333 8.53055 12.2333 8.99999C12.2333 9.46944 11.8527 9.84999 11.3833 9.84999H3.23534L6.0343 12.649C6.36625 12.9809 6.36625 13.5191 6.0343 13.851Z" fill="#FFEDEC"/>
</svg>
