<svg width="14" height="21" viewBox="0 0 14 21" fill="none" xmlns="http://www.w3.org/2000/svg">
<path fill-rule="evenodd" clip-rule="evenodd" d="M4.30963 1.47631C4.93475 0.851189 5.7826 0.5 6.66665 0.5C7.55071 0.5 8.39855 0.851189 9.02367 1.47631C9.6488 2.10143 9.99998 2.94928 9.99998 3.83333V10.5C9.99998 11.3841 9.6488 12.2319 9.02367 12.857C8.39855 13.4821 7.55071 13.8333 6.66665 13.8333C5.7826 13.8333 4.93475 13.4821 4.30963 12.857C3.68451 12.2319 3.33332 11.3841 3.33332 10.5V3.83333C3.33332 2.94928 3.68451 2.10143 4.30963 1.47631ZM6.66665 2.16667C6.22462 2.16667 5.8007 2.34226 5.48814 2.65482C5.17558 2.96738 4.99999 3.39131 4.99999 3.83333V10.5C4.99999 10.942 5.17558 11.366 5.48814 11.6785C5.8007 11.9911 6.22462 12.1667 6.66665 12.1667C7.10868 12.1667 7.5326 11.9911 7.84516 11.6785C8.15772 11.366 8.33332 10.942 8.33332 10.5V3.83333C8.33332 3.39131 8.15772 2.96738 7.84516 2.65482C7.5326 2.34226 7.10868 2.16667 6.66665 2.16667Z" fill="#EFF0FA"/>
<path fill-rule="evenodd" clip-rule="evenodd" d="M0.833333 8C1.29357 8 1.66667 8.3731 1.66667 8.83333V10.5C1.66667 11.8261 2.19345 13.0979 3.13113 14.0355C4.06881 14.9732 5.34058 15.5 6.66667 15.5C7.99275 15.5 9.26452 14.9732 10.2022 14.0355C11.1399 13.0979 11.6667 11.8261 11.6667 10.5V8.83333C11.6667 8.3731 12.0398 8 12.5 8C12.9602 8 13.3333 8.3731 13.3333 8.83333V10.5C13.3333 12.2681 12.631 13.9638 11.3807 15.214C10.1305 16.4643 8.43478 17.1667 6.66667 17.1667C4.89856 17.1667 3.20286 16.4643 1.95262 15.214C0.702379 13.9638 4.96705e-08 12.2681 0 10.5V8.83333C0 8.3731 0.373096 8 0.833333 8Z" fill="#EFF0FA"/>
<path fill-rule="evenodd" clip-rule="evenodd" d="M6.66667 15.5C7.1269 15.5 7.49999 15.8731 7.49999 16.3333V19.6667C7.49999 20.1269 7.12689 20.5 6.66665 20.5C6.20641 20.5 5.83332 20.1269 5.83332 19.6667V16.3333C5.83332 15.8731 6.20643 15.5 6.66667 15.5Z" fill="#EFF0FA"/>
<path fill-rule="evenodd" clip-rule="evenodd" d="M2.5 19.6666C2.5 19.2064 2.8731 18.8333 3.33333 18.8333H10C10.4602 18.8333 10.8333 19.2064 10.8333 19.6666C10.8333 20.1268 10.4602 20.4999 10 20.4999H3.33333C2.8731 20.4999 2.5 20.1268 2.5 19.6666Z" fill="#EFF0FA"/>
</svg>
