<svg width="8" height="9" viewBox="0 0 8 9" fill="none" xmlns="http://www.w3.org/2000/svg">
<path d="M6.3687 4.98679L6 4.61812L6.94469 3.67343C7.22957 3.38206 7.40534 2.98298 7.40534 2.54285C7.40534 2.53593 7.40529 2.52902 7.4052 2.52211V2.52315V2.52107C7.40167 1.62521 6.67637 0.899918 5.78086 0.896379H5.78052C5.77914 0.896364 5.77751 0.896364 5.77588 0.896364C5.32791 0.896364 4.92248 1.07853 4.62963 1.37282L3.68347 2.31898L3.31477 1.95029L4.26087 1.00419C4.64774 0.615301 5.18329 0.374629 5.77504 0.374629C5.77696 0.374629 5.77889 0.374629 5.78082 0.374645H5.78051C6.96729 0.382747 7.92621 1.34668 7.92621 2.5346C7.92621 3.1194 7.69382 3.64991 7.31634 4.03883L7.31686 4.03829L7.31441 4.04073L6.3687 4.98679ZM2.22122 8.24281H2.21391C1.02753 8.23898 0.06725 7.27632 0.06725 6.08941C0.06725 5.49229 0.310297 4.95193 0.702852 4.56186L1.64871 3.61635L2.0174 3.98504L1.0713 4.93114C0.77357 5.22682 0.589273 5.63641 0.589273 6.08904C0.589273 6.99025 1.31985 7.72081 2.22105 7.72081C2.66962 7.72081 3.07591 7.53981 3.37089 7.24686L4.31653 6.30157L4.68523 6.67027L3.73913 7.61636C3.35195 8.00341 2.8171 8.24279 2.22635 8.24279C2.22455 8.24279 2.22276 8.24279 2.22095 8.24278H2.22122V8.24281ZM2.51825 6.15203L2.14956 5.78332L5.48173 2.45115L5.85043 2.81985L2.51825 6.15203ZM8 5.89462H7.00174V5.37289H8V5.89462ZM5.59305 8.30157H5.0713V7.30332H5.59305V8.30157ZM6.98086 7.65114L6.31652 6.98679L6.68521 6.61809L7.34956 7.28244L6.98086 7.65114ZM1.00174 3.23028H0V2.70853H1.00174V3.23028ZM2.9287 1.30332H2.40695V0.301575H2.9287V1.30332ZM1.31479 1.98504L0.65043 1.3207L1.01912 0.952012L1.68348 1.61636L1.31479 1.98504Z" fill="#F1F0F5"/>
</svg>
