<svg width="19" height="20" viewBox="0 0 19 20" fill="none" xmlns="http://www.w3.org/2000/svg">
<path fill-rule="evenodd" clip-rule="evenodd" d="M4.35837 5.08458V4.95941C4.35837 2.6961 5.9968 0.719915 8.34061 0.156257C9.20694 -0.0520855 10.1155 -0.0520856 10.9819 0.156257C13.3257 0.719915 14.9641 2.6961 14.9641 4.95942V5.08458H16.6399C17.2777 5.08458 17.819 5.52203 17.9115 6.1122L18.1556 7.67045C18.6362 10.7385 18.6362 13.8556 18.1556 16.9236C17.9235 18.4052 16.646 19.5506 15.0534 19.7051L14.3513 19.7732C11.233 20.0756 8.08951 20.0756 4.97113 19.7732L4.26906 19.7051C2.67648 19.5506 1.39901 18.4052 1.16689 16.9236C0.686233 13.8556 0.686233 10.7385 1.16689 7.67045L1.41101 6.1122C1.50347 5.52203 2.04475 5.08458 2.68253 5.08458H4.35837ZM8.75765 1.67304C9.3504 1.53049 9.97208 1.53049 10.5648 1.67304C12.1685 2.05871 13.2895 3.41083 13.2895 4.95942V5.08458H6.03296V4.95941C6.03296 3.41083 7.15399 2.05871 8.75765 1.67304ZM4.35837 6.65071V8.9999C4.35837 9.43238 4.73324 9.78297 5.19567 9.78297C5.65809 9.78297 6.03296 9.43238 6.03296 8.9999V6.65071H13.2895V8.9999C13.2895 9.43238 13.6644 9.78297 14.1268 9.78297C14.5892 9.78297 14.9641 9.43238 14.9641 8.9999V6.65071H16.3034L16.4987 7.89749C16.9558 10.8149 16.9558 13.7791 16.4987 16.6966C16.3776 17.4693 15.7113 18.0667 14.8807 18.1473L14.1786 18.2154C11.1751 18.5067 8.14739 18.5067 5.14386 18.2154L4.4418 18.1473C3.61115 18.0667 2.94485 17.4693 2.82379 16.6966C2.36672 13.7791 2.36672 10.8149 2.82379 7.89749L3.01912 6.65071H4.35837Z" fill="#E1E0E7"/>
</svg>
