<svg width="15" height="16" viewBox="0 0 15 16" fill="none" xmlns="http://www.w3.org/2000/svg">
<path d="M6.04166 1.18623C5.69648 1.18623 5.41666 0.92068 5.41666 0.593113C5.41666 0.265546 5.69648 0 6.04166 0H8.98794C9.33312 0 9.61294 0.265546 9.61294 0.593113C9.61294 0.92068 9.33312 1.18623 8.98794 1.18623H6.04166Z" fill="white"/>
<path d="M3.15027 1.5436C3.39435 1.77522 3.39435 2.15076 3.15027 2.38239L1.06694 4.35943C0.822864 4.59106 0.427136 4.59106 0.183058 4.35943C-0.0610194 4.12781 -0.0610194 3.75227 0.183058 3.52064L2.26639 1.5436C2.51047 1.31197 2.9062 1.31197 3.15027 1.5436Z" fill="white"/>
<path d="M7.70833 3.34692C4.37161 3.34692 1.66667 5.91387 1.66667 9.08035C1.66667 12.2468 4.37161 14.8138 7.70833 14.8138C11.0451 14.8138 13.75 12.2468 13.75 9.08035C13.75 8.75278 14.0298 8.48724 14.375 8.48724C14.7202 8.48724 15 8.75278 15 9.08035C15 12.902 11.7354 16 7.70833 16C3.68126 16 0.416667 12.902 0.416667 9.08035C0.416667 5.25873 3.68126 2.1607 7.70833 2.1607C8.05351 2.1607 8.33333 2.42624 8.33333 2.75381C8.33333 3.08138 8.05351 3.34692 7.70833 3.34692Z" fill="white"/>
<path d="M12.0318 5.41432C12.2254 5.17821 12.2033 4.8423 11.9804 4.63079C11.7576 4.41928 11.4036 4.39837 11.1548 4.58201L8.51319 6.53176L6.78701 7.70184C6.41828 7.95178 6.19945 8.35532 6.19945 8.78533C6.19945 9.5207 6.82763 10.1168 7.60254 10.1168C8.05567 10.1168 8.4809 9.90917 8.74428 9.55925L9.97727 7.92114L12.0318 5.41432Z" fill="white"/>
</svg>
