<svg width="14" height="14" viewBox="0 0 14 14" fill="none" xmlns="http://www.w3.org/2000/svg">
<path fill-rule="evenodd" clip-rule="evenodd" d="M13.9091 2.30745C14.0505 2.51964 14.0269 2.80799 13.8383 2.99479L7.07228 9.69493C7.00292 9.76361 6.91634 9.81276 6.82144 9.8373L4.00354 10.5662C3.91163 10.59 3.81689 10.5895 3.72788 10.567C3.63325 10.5432 3.54509 10.4945 3.47368 10.4238C3.3351 10.2866 3.28039 10.0869 3.32992 9.89911L4.06596 7.10865C4.08765 7.02642 4.12835 6.94521 4.18465 6.88151L10.9758 0.160113C11.0352 0.101246 11.1068 0.057188 11.1847 0.0303442C11.2425 0.0104407 11.3038 0 11.3661 0C11.5125 0 11.6529 0.0575942 11.7565 0.160113L13.8383 2.2217C13.8653 2.24838 13.8888 2.27714 13.9091 2.30745ZM12.6673 2.60824L11.3661 1.31975L5.09633 7.52847L4.63631 9.2725L6.3975 8.81696L12.6673 2.60824Z" fill="white"/>
<path d="M12.5742 10.8678C12.7755 9.16398 12.8395 7.44826 12.7663 5.73686C12.7628 5.65492 12.7939 5.57519 12.8525 5.5172L13.5763 4.80047C13.6653 4.71235 13.8173 4.76829 13.8256 4.89264C13.9618 6.92596 13.9101 8.96852 13.6708 10.9948C13.4967 12.469 12.3011 13.6243 10.8201 13.7882C8.26858 14.0706 5.63108 14.0706 3.07951 13.7882C1.59854 13.6243 0.402954 12.469 0.22884 10.9948C-0.0762799 8.41146 -0.07628 5.80168 0.22884 3.21832C0.402954 1.74414 1.59854 0.588854 3.07951 0.424946C5.01513 0.210718 7.00021 0.159004 8.95971 0.269803C9.086 0.276944 9.14357 0.428272 9.05413 0.516844L8.32356 1.2403C8.26564 1.29766 8.1862 1.32846 8.10434 1.32573C6.46558 1.27099 4.81569 1.33292 3.20214 1.5115C2.22312 1.61985 1.43887 2.3849 1.32544 3.34532C1.03028 5.84431 1.03028 8.36884 1.32544 10.8678C1.43887 11.8283 2.22312 12.5933 3.20214 12.7016C5.67221 12.975 8.22745 12.975 10.6975 12.7016C11.6765 12.5933 12.4608 11.8283 12.5742 10.8678Z" fill="white"/>
</svg>
