<svg width="18" height="17" viewBox="0 0 18 17" fill="none" xmlns="http://www.w3.org/2000/svg">
<path d="M7.77963 14.5476C7.77963 14.821 7.70011 15.0883 7.55112 15.3156C7.40213 15.543 7.19036 15.7201 6.9426 15.8248C6.69484 15.9294 6.4222 15.9568 6.15918 15.9034C5.89615 15.8501 5.65455 15.7184 5.46492 15.5251C5.27529 15.3318 5.14615 15.0854 5.09383 14.8173C5.04152 14.5491 5.06837 14.2712 5.17099 14.0186C5.27362 13.766 5.44741 13.5501 5.67039 13.3982C5.89338 13.2463 6.15553 13.1652 6.42371 13.1652C6.78332 13.1652 7.12821 13.3108 7.38249 13.5701C7.63678 13.8293 7.77963 14.181 7.77963 14.5476ZM13.4745 13.1652C13.2063 13.1652 12.9442 13.2463 12.7212 13.3982C12.4982 13.5501 12.3244 13.766 12.2218 14.0186C12.1192 14.2712 12.0923 14.5491 12.1447 14.8173C12.197 15.0854 12.3261 15.3318 12.5157 15.5251C12.7054 15.7184 12.947 15.8501 13.21 15.9034C13.473 15.9568 13.7457 15.9294 13.9934 15.8248C14.2412 15.7201 14.4529 15.543 14.6019 15.3156C14.7509 15.0883 14.8305 14.821 14.8305 14.5476C14.8305 14.181 14.6876 13.8293 14.4333 13.5701C14.179 13.3108 13.8341 13.1652 13.4745 13.1652ZM16.964 4.83825L15.1138 10.9692C14.9957 11.3657 14.7553 11.7128 14.4284 11.959C14.1015 12.2051 13.7054 12.3373 13.2989 12.3357H6.62235C6.21009 12.3344 5.80935 12.1968 5.4802 11.9438C5.15105 11.6907 4.9112 11.3357 4.7966 10.9319L2.47864 2.65889H1.81356C1.59779 2.65889 1.39086 2.5715 1.23829 2.41595C1.08571 2.2604 1 2.04943 1 1.82944C1 1.60946 1.08571 1.39849 1.23829 1.24294C1.39086 1.08739 1.59779 1 1.81356 1H2.68271C2.97717 1.00093 3.26341 1.09918 3.49847 1.28001C3.73353 1.46083 3.90475 1.7145 3.98643 2.00294L4.48066 3.76481H16.1864C16.3137 3.7648 16.4393 3.79526 16.5529 3.85374C16.6666 3.91221 16.7652 3.99707 16.8409 4.10149C16.9165 4.2059 16.9671 4.32696 16.9884 4.45493C17.0098 4.58289 17.0015 4.71419 16.964 4.83825ZM15.0847 5.4237H4.94507L6.36133 10.4764C6.37755 10.5342 6.4118 10.585 6.4589 10.6212C6.506 10.6574 6.56338 10.6769 6.62235 10.6769H13.2989C13.357 10.677 13.4135 10.6581 13.4603 10.623C13.507 10.5879 13.5415 10.5385 13.5586 10.4819L15.0847 5.4237Z" stroke="white" stroke-width="1.5" stroke-linecap="round" stroke-linejoin="round"/>
</svg>
