<svg width="136" height="136" viewBox="0 0 136 136" fill="none" xmlns="http://www.w3.org/2000/svg">
<path d="M116.044 19.9146C103.224 7.05308 86.1306 0 68 0C49.8279 0 32.7346 7.05308 19.9146 19.9146C7.05308 32.7346 0 49.8279 0 68C0 86.1721 7.05308 103.224 19.9146 116.085C32.7346 128.905 49.8279 136 68 136C86.1721 136 103.224 128.947 116.085 116.085C128.905 103.265 136 86.1721 136 68C135.959 49.8279 128.905 32.7346 116.044 19.9146Z" fill="#3CAF47"/>
<path d="M59.0801 80.3225L45.7207 66.9631C43.1484 64.3908 38.9166 64.3908 36.3443 66.9631C33.772 69.5354 33.772 73.7672 36.3443 76.3396L54.3919 94.3871C56.9642 96.9594 61.196 96.9594 63.7683 94.3871L101.316 56.8399C103.888 54.2676 103.888 50.0357 101.316 47.4634C98.7433 44.8911 94.5115 44.8911 91.9392 47.4634L59.0801 80.3225Z" fill="white"/>
</svg>
